# Blender v2.82 (sub 7) OBJ File: ''
# www.blender.org
mtllib untitled.mtl
o Cube
v 1.000000 2.434360 -1.000000
v 1.000000 -1.000000 -1.000000
v 1.000000 2.434360 1.000000
v 1.000000 -1.000000 1.000000
v -1.000000 2.434360 -1.000000
v -1.000000 -1.000000 -1.000000
v -1.000000 2.434360 1.000000
v -1.000000 -1.000000 1.000000
v 1.000000 0.717180 -1.000000
v 1.000000 0.717180 1.000000
v 1.000000 2.434360 0.000000
v 1.000000 -1.000000 0.000000
vt 0.625000 0.500000
vt 0.875000 0.500000
vt 0.875000 0.750000
vt 0.625000 0.750000
vt 0.625000 0.625000
vt 0.375000 0.750000
vt 0.500000 0.750000
vt 0.625000 1.000000
vt 0.375000 1.000000
vt 0.375000 0.000000
vt 0.625000 0.000000
vt 0.625000 0.250000
vt 0.375000 0.250000
vt 0.125000 0.500000
vt 0.375000 0.500000
vt 0.375000 0.625000
vt 0.125000 0.750000
vt 0.500000 0.500000
vn 0.0000 1.0000 0.0000
vn 0.0000 0.0000 1.0000
vn -1.0000 0.0000 0.0000
vn 0.0000 -1.0000 0.0000
vn 0.0000 0.0000 -1.0000
vn 1.0000 0.0000 0.0000
usemtl Material
s off
f 1/1/1 5/2/1 7/3/1 3/4/1 11/5/1
f 4/6/2 10/7/2 3/4/2 7/8/2 8/9/2
f 8/10/3 7/11/3 5/12/3 6/13/3
f 6/14/4 2/15/4 12/16/4 4/6/4 8/17/4
f 6/13/5 5/12/5 1/1/5 9/18/5 2/15/5
f 11/5/6 3/4/6 10/7/6 4/6/6 12/16/6 2/15/6 9/18/6 1/1/6
